# xmcd CD database file
#
# Track frame offsets:
#	182
#	16587
#	34625
#	56560
#	73970
#	86390
#	101860
#	114875
#	131032
#	143670
#	161630
#	175855
#	196750
#	211097
#	227542
#	240147
#	262707
#	278780
#	303047
#	320650
#	336942
#
# Disc length: 4750 seconds
#
# Revision: 0
# Processed by: cddbd v1.5.1PL0 Copyright (c) Steve Scherf et al.
# Submitted via: CDex 1.51
#
DISCID=0e128c15
DTITLE=Bourbon Street  - 1959 - 1994 History Of Bourbon Street Jazzband
DYEAR=1900
DGENRE=Jazz
TTITLE0=Willie The Weeper
TTITLE1=No Name Blues
TTITLE2=Shine
TTITLE3=Stranger On The Shore
TTITLE4=Canal Street Blues
TTITLE5=Precious Lord Take My Hand
TTITLE6=Copenhagen
TTITLE7=Thishomingo Blues
TTITLE8=South Rampart Street Parade
TTITLE9=At a Jazzband Ball
TTITLE10=Shim-Me-Sha-Wabble
TTITLE11=Wolverine Blues
TTITLE12=Jazz Me Blues
TTITLE13=Riverside Blues
TTITLE14=Ory's Creole Trombone
TTITLE15=Doctor Jazz
TTITLE16=Just A Little Wyle To Stay Here
TTITLE17=Indiana
TTITLE18=Bourbon Street Parade
TTITLE19=That's Plenty
TTITLE20=Alamo
EXTD=
EXTT0=
EXTT1=
EXTT2=
EXTT3=
EXTT4=
EXTT5=
EXTT6=
EXTT7=
EXTT8=
EXTT9=
EXTT10=
EXTT11=
EXTT12=
EXTT13=
EXTT14=
EXTT15=
EXTT16=
EXTT17=
EXTT18=
EXTT19=
EXTT20=
PLAYORDER=
